/* XPM */
static char * 7kaa_xpm[] = {
"32 32 426 2",
"  	c None",
". 	c #3E4F91",
"+ 	c #3B4B92",
"@ 	c #435291",
"# 	c #455391",
"$ 	c #455291",
"% 	c #445290",
"& 	c #455390",
"* 	c #425092",
"= 	c #414F92",
"- 	c #404E92",
"; 	c #383773",
"> 	c #412533",
", 	c #3C4D91",
"' 	c #3F4D92",
") 	c #B0B069",
"! 	c #CCC95C",
"~ 	c #CDC95C",
"{ 	c #CFCB5B",
"] 	c #BCB75A",
"^ 	c #3E2E2D",
"/ 	c #394A93",
"( 	c #868980",
"_ 	c #E7E04E",
": 	c #EAE24C",
"< 	c #D7C147",
"[ 	c #CCA840",
"} 	c #D1B647",
"| 	c #E9E24C",
"1 	c #9D9239",
"2 	c #3C232A",
"3 	c #374894",
"4 	c #3B4B93",
"5 	c #3F4E92",
"6 	c #BEBC68",
"7 	c #EAE34C",
"8 	c #D7C249",
"9 	c #B42923",
"0 	c #B61422",
"a 	c #BA393E",
"b 	c #BA383D",
"c 	c #B6111F",
"d 	c #B60C1C",
"e 	c #B6171F",
"f 	c #CDAC45",
"g 	c #D6CC48",
"h 	c #423422",
"i 	c #3D4E92",
"j 	c #515D8C",
"k 	c #3E4D93",
"l 	c #9B9D73",
"m 	c #4F5A8F",
"n 	c #3A4B93",
"o 	c #3A4B92",
"p 	c #656C8A",
"q 	c #E0DA53",
"r 	c #E9E14C",
"s 	c #C18A3D",
"t 	c #BA4148",
"u 	c #F3EAEA",
"v 	c #EEE0E1",
"w 	c #B92F37",
"x 	c #B70B1B",
"y 	c #B75832",
"z 	c #E6DD4B",
"A 	c #E8E14C",
"B 	c #928635",
"C 	c #3E2529",
"D 	c #415090",
"E 	c #525D8E",
"F 	c #9B9D74",
"G 	c #535F8B",
"H 	c #C8C55E",
"I 	c #C5C165",
"J 	c #4E598F",
"K 	c #3B4A92",
"L 	c #4B598D",
"M 	c #394993",
"N 	c #A3A375",
"O 	c #E9E24D",
"P 	c #E0D24B",
"Q 	c #B5402D",
"R 	c #D09DA0",
"S 	c #CF9799",
"T 	c #B70D1C",
"U 	c #B61B1E",
"V 	c #D0B446",
"W 	c #CFC546",
"X 	c #3C2E29",
"Y 	c #535278",
"Z 	c #44538F",
"` 	c #C9C562",
" .	c #C6C360",
"..	c #515E8B",
"+.	c #CAC75D",
"@.	c #C4C165",
"#.	c #5C658B",
"$.	c #545F8D",
"%.	c #555F8D",
"&.	c #505B8E",
"*.	c #4D5890",
"=.	c #D2CD5C",
"-.	c #CCA744",
";.	c #B72128",
">.	c #B71924",
",.	c #B96835",
"'.	c #E7DF4C",
").	c #E7E04C",
"!.	c #857832",
"~.	c #4A455C",
"{.	c #555F8C",
"].	c #5E678A",
"^.	c #C8C463",
"/.	c #E9E34C",
"(.	c #C7C460",
"_.	c #4F5C8C",
":.	c #CCC85C",
"<.	c #E6E04F",
"[.	c #E6DF50",
"}.	c #E0DA54",
"|.	c #6C7388",
"1.	c #858881",
"2.	c #E7DE4C",
"3.	c #B96534",
"4.	c #B62320",
"5.	c #D5BD48",
"6.	c #C7BD44",
"7.	c #4F4124",
"8.	c #D8CF4B",
"9.	c #4C5A8D",
"0.	c #485491",
"a.	c #D7C148",
"b.	c #B52822",
"c.	c #BD7A39",
"d.	c #E8E04C",
"e.	c #E6DF4B",
"f.	c #76682F",
"g.	c #A79C3C",
"h.	c #4A588E",
"i.	c #C4C15E",
"j.	c #E3DC4C",
"k.	c #8A8B7C",
"l.	c #666D89",
"m.	c #C29041",
"n.	c #D9C64A",
"o.	c #BFB442",
"p.	c #504127",
"q.	c #DCD449",
"r.	c #C3C05E",
"s.	c #48558F",
"t.	c #374692",
"u.	c #504336",
"v.	c #534B21",
"w.	c #524A21",
"x.	c #4E4332",
"y.	c #454C88",
"z.	c #A5A574",
"A.	c #E5DE4B",
"B.	c #66562C",
"C.	c #3F371E",
"D.	c #4A4220",
"E.	c #3D371E",
"F.	c #3F382B",
"G.	c #433C28",
"H.	c #524A22",
"I.	c #50423A",
"J.	c #3F4D8F",
"K.	c #C6C35C",
"L.	c #AFAE6F",
"M.	c #505B8F",
"N.	c #D3CF5B",
"O.	c #B6AB40",
"P.	c #64552B",
"Q.	c #E2DB4A",
"R.	c #B2A73F",
"S.	c #301B2F",
"T.	c #36448F",
"U.	c #6C7382",
"V.	c #D8D353",
"W.	c #E5DF4B",
"X.	c #BAB765",
"Y.	c #414F91",
"Z.	c #CBC85D",
"`.	c #E4DE50",
" +	c #757A85",
".+	c #898B80",
"++	c #E3DB4B",
"@+	c #5B4B28",
"#+	c #BDB242",
"$+	c #B1A63E",
"%+	c #321B32",
"&+	c #364691",
"*+	c #3A4A93",
"=+	c #95977A",
"-+	c #E8E14D",
";+	c #BDBA66",
">+	c #3E4E91",
",+	c #BBAF42",
"'+	c #B8AC41",
")+	c #B9AD42",
"!+	c #DDD34A",
"~+	c #ADA758",
"{+	c #414D8D",
"]+	c #C0BD67",
"^+	c #ADA23E",
"/+	c #76692F",
"(+	c #BBB042",
"_+	c #423628",
":+	c #373267",
"<+	c #374793",
"[+	c #717688",
"}+	c #DBD655",
"|+	c #E7DF4B",
"1+	c #948950",
"2+	c #3A4992",
"3+	c #3C4B92",
"4+	c #9F9651",
"5+	c #423033",
"6+	c #351D34",
"7+	c #351E33",
"8+	c #5F4A38",
"9+	c #D4CB4B",
"0+	c #5B4B2C",
"a+	c #3C3A79",
"b+	c #606788",
"c+	c #554040",
"d+	c #C9BE45",
"e+	c #D4C749",
"f+	c #3C3126",
"g+	c #353A79",
"h+	c #656D8A",
"i+	c #D6D158",
"j+	c #E7E04B",
"k+	c #9A8C3B",
"l+	c #3C3160",
"m+	c #3C4B91",
"n+	c #364692",
"o+	c #3A2B55",
"p+	c #36274C",
"q+	c #39448B",
"r+	c #374691",
"s+	c #384691",
"t+	c #394890",
"u+	c #384791",
"v+	c #525C8C",
"w+	c #DDD753",
"x+	c #BFB443",
"y+	c #332435",
"z+	c #3A498F",
"A+	c #374794",
"B+	c #4D578E",
"C+	c #E5DF50",
"D+	c #CFC148",
"E+	c #39292E",
"F+	c #5B648C",
"G+	c #D1CD5D",
"H+	c #A5963D",
"I+	c #3C3159",
"J+	c #3C4A90",
"K+	c #3C4B90",
"L+	c #9B9B7A",
"M+	c #7F7232",
"N+	c #343368",
"O+	c #4B588D",
"P+	c #CFC047",
"Q+	c #3A292F",
"R+	c #535C8B",
"S+	c #CCC860",
"T+	c #B3A53F",
"U+	c #3C3252",
"V+	c #3C4A8E",
"W+	c #455292",
"X+	c #CFCB5C",
"Y+	c #D2C847",
"Z+	c #382D2A",
"`+	c #3C4487",
" @	c #CEC047",
".@	c #48382B",
"+@	c #C5C161",
"@@	c #C0B642",
"#@	c #40354A",
"$@	c #3D498A",
"%@	c #3C4C92",
"&@	c #7F8382",
"*@	c #9B9138",
"=@	c #312A58",
"-@	c #47548D",
";@	c #D2C448",
">@	c #A8983E",
",@	c #C9C144",
"'@	c #463A43",
")@	c #3D4687",
"!@	c #3D4C93",
"~@	c #BEBB68",
"{@	c #E0D84A",
"]@	c #473A28",
"^@	c #3B3D7C",
"/@	c #CEC545",
"(@	c #4D3D3D",
"_@	c #3D4483",
":@	c #636B8A",
"<@	c #E4DD50",
"[@	c #B3A93E",
"}@	c #312240",
"|@	c #414F8E",
"1@	c #D5CA48",
"2@	c #544130",
"3@	c #3D4281",
"4@	c #ACAA72",
"5@	c #E6DE4B",
"6@	c #62522C",
"7@	c #373771",
"8@	c #44538E",
"9@	c #BDB043",
"0@	c #341F2E",
"a@	c #3A478E",
"b@	c #3F4E90",
"c@	c #DAD556",
"d@	c #C4B944",
"e@	c #332530",
"f@	c #3A478D",
"g@	c #948737",
"h@	c #392E58",
"i@	c #3D4B8E",
"j@	c #93957C",
"k@	c #E8E24D",
"l@	c #897D34",
"m@	c #333064",
"n@	c #404F90",
"o@	c #E4DC4B",
"p@	c #938637",
"q@	c #382E5A",
"r@	c #3D4C8E",
"s@	c #CAC660",
"t@	c #D6CC49",
"u@	c #3B2F29",
"v@	c #3A4185",
"w@	c #CCBE48",
"x@	c #8A7D33",
"y@	c #E5DE4D",
"z@	c #918536",
"A@	c #392E5B",
"B@	c #3E4C8E",
"C@	c #747A85",
"D@	c #A4993A",
"E@	c #312953",
"F@	c #3E4C90",
"G@	c #CBBD47",
"H@	c #3C2B2D",
"I@	c #989976",
"J@	c #8F8436",
"K@	c #3A2E5B",
"L@	c #3F4C8E",
"M@	c #B8B66C",
"N@	c #E4DC4A",
"O@	c #4F4129",
"P@	c #3A3B7A",
"Q@	c #38272F",
"R@	c #3B4A90",
"S@	c #9C9D77",
"T@	c #E7E04F",
"U@	c #8D8134",
"V@	c #3B2F5C",
"W@	c #404D8E",
"X@	c #5A638C",
"Y@	c #E1DB52",
"Z@	c #BDB143",
"`@	c #332030",
" #	c #CBBE47",
".#	c #38272E",
"+#	c #3C4A8F",
"@#	c #4C598E",
"##	c #A0A076",
"$#	c #E5DD4B",
"%#	c #897E33",
"&#	c #3B305F",
"*#	c #404F8E",
"=#	c #A2A277",
"-#	c #E1D94B",
";#	c #6B5D2F",
">#	c #373770",
",#	c #4F5C8A",
"'#	c #DCD34A",
")#	c #675830",
"!#	c #47446A",
"~#	c #4A578F",
"{#	c #A3A374",
"]#	c #E7E14E",
"^#	c #8A7C46",
"/#	c #414E8E",
"(#	c #475491",
"_#	c #D3CF5A",
":#	c #D1C747",
"<#	c #49392E",
"[#	c #3A3F80",
"}#	c #4A588C",
"|#	c #384894",
"1#	c #626A8A",
"2#	c #E6E050",
"3#	c #DED44A",
"4#	c #867B33",
"5#	c #452734",
"6#	c #A7A772",
"7#	c #E8E14E",
"8#	c #C6C25F",
"9#	c #6A7286",
"0#	c #CAC65D",
"a#	c #9E9852",
"b#	c #3B2848",
"c#	c #B5B467",
"d#	c #A89E54",
"e#	c #3A2236",
"f#	c #475490",
"g#	c #A6A673",
"h#	c #AEAE6A",
"i#	c #3D4D92",
"j#	c #445291",
"k#	c #425090",
"l#	c #3A4990",
"m#	c #3F4D93",
"n#	c #414E91",
"o#	c #3E4D8F",
"p#	c #405091",
"q#	c #4B588E",
"r#	c #4D5A8D",
"s#	c #576288",
"            . + @ # # # # $ % & * = = = = = - ; >               ",
"            , ' ) ! ! ! ! ! ~ { ~ ! ! ! ! ! ] ^                 ",
"              / ( _ : < [ [ [ [ [ [ [ } | | 1 2                 ",
"3 4 +         . 5 6 7 8 9 0 a b c d e f 7 g h             i 4 j ",
"k l m n         o p q r s t u v w x y z A B C           D E F G ",
"- H I J K       L M N O P Q R S T U V 7 W X Y         Z E `  ...",
"- +.| @.#.$.$.%.$.&.*.=.: -.;.>.x ,.'.).!.~.{.$.$.$.$.].^./.(._.",
"= :.7 7 <.[.[.[.[.}.|.1._ 2.3.x 4.5.7 6.7.8.[.[.[.[.[.<.7 7 (.9.",
"= ~ 7 7 7 7 7 7 7 7 @.0.6 7 a.b.c.d.e.f.g.| 7 7 7 7 7 7 7 7 (.h.",
"' i.e.e.e.e.e.e.e.e.j.k.l.q r m.n.7 o.p.q.e.e.e.e.e.e.e.e.e.r.s.",
"t.u.v.v.v.v.v.v.v.v.w.x.y.z.O r 7 A.B.C.w.v.D.E.F.G.H.v.v.v.I.J.",
"- K.e.e.e.e.e.e.e.e.e.A.L.M.N.7 7 O.P.Q.e.e.R.S.T.U.V.W.e.e.X.Y.",
"= Z.7 7 7 7 7 7 7 7 7 7 `. +.+_ ++@+#+7 7 : $+%+&+*+=+-+7 7 ;+>+",
"= ! A ,+'+'+'+)+!+7 7 7 7 ~+{+]+^+/+e.7 A (+_+:+<+[+}+7 7 |+1+2+",
"3+4+R.5+6+6+6+7+8+9+7 7 A.0+a+b+c+d+7 7 e+f+g+<+h+i+7 7 j+k+l+m+",
"n+o+p+q+r+s+t+u+v+w+7 7 x+y+z+A+B+C+7 7 D+E+&+F+G+7 7 d.H+I+J+  ",
"o K+J+        4 L+O 7 d.M+N+O+3 *.[.7 7 P+Q+R+S+7 7 r T+U+V+    ",
"              W+X+7 7 Y+Z+`+  3 *.[.7 7  @.@+@/.7 | @@#@$@      ",
"            %@&@_ 7 | *@=@-@  3 *.[.7 7 ;@>@A 7 7 ,@'@)@        ",
"            !@~@7 7 {@]@^@    3 *.[.7 7 | r 7 7 /@(@_@          ",
"          %@:@<@7 7 [@}@|@    3 *.[.7 7 7 7 7 1@2@3@            ",
"          + 4@| 7 5@6@7@8@    3 *.[.7 7 7 7 7 9@0@a@            ",
"        b@J c@7 7 d@e@f@      3 *.[.7 7 7 7 7 |+g@h@i@          ",
"        %@j@k@7 A l@m@n@      3 *.[.7 7 ++o@7 7 e.p@q@r@        ",
"        * s@7 7 t@u@v@        3 *.[.7 7 w@x@y@7 7 e.z@A@B@      ",
"      %@C@<.7 | D@E@F@        3 *.[.7 7 G@H@I@<.7 7 e.J@K@L@    ",
"      4 M@7 7 N@O@P@          3 *.[.7 7 G@Q@R@S@T@7 7 5@U@V@W@  ",
"    + X@Y@7 7 Z@`@V+          A+*.[.7 7  #.#+#@###_ 7 7 $#%#&#*#",
"    + =#O 7 7 -#;#>#,#        A+*.[.7 7 '#)#!#  ~#{#]#7 7 o@^#/#",
"    (#_#7 7 7 7 :#<#[#}#      |#1#2#7 7 7 3#4#5#  s.6#7#7 7 8#@#",
"  + 9#0#! ! ! ! :.a#b#u+      - c#! ! ! ! ! d#e#    f#g#! ! h#_.",
"  %@i#j#% % % % # k#l#/       3 m#= j#% # % n#o#      p#& q#r#s#"};
